<?xml version="1.0" standalone="no"?>
<!DOCTYPE svg PUBLIC "-//W3C//DTD SVG 20010904//EN"
 "http://www.w3.org/TR/2001/REC-SVG-20010904/DTD/svg10.dtd">
<svg version="1.0" xmlns="http://www.w3.org/2000/svg"
 width="260.000000pt" height="260.000000pt" viewBox="0 0 260.000000 260.000000"
 preserveAspectRatio="xMidYMid meet">
<metadata>
Created by potrace 1.11, written by Peter Selinger 2001-2013
</metadata>
<g transform="translate(0.000000,260.000000) scale(0.100000,-0.100000)"
fill="#000000" stroke="none">
<path d="M0 1300 l0 -1300 1300 0 1300 0 0 1300 0 1300 -1300 0 -1300 0 0
-1300z m899 529 c39 -14 39 -22 0 -51 -17 -13 -52 -42 -77 -64 -34 -30 -60
-44 -92 -49 -99 -16 -160 -68 -160 -136 0 -21 -4 -39 -9 -39 -6 0 -37 -25 -69
-55 l-60 -55 -18 37 c-10 21 -20 68 -22 105 -3 55 0 76 20 120 45 97 145 174
260 198 51 11 183 4 227 -11z m1336 -388 c-14 -78 -92 -106 -146 -52 -28 29
-29 32 -29 131 l0 102 88 101 87 100 3 -174 c2 -96 0 -189 -3 -208z m-266
-468 c82 2 91 0 115 -22 35 -33 36 -92 1 -126 l-24 -25 -271 0 -271 0 -24 25
c-34 33 -32 72 4 115 28 34 31 35 115 39 l86 3 0 103 0 103 88 108 87 109 3
-217 2 -216 89 1z"/>
</g>
</svg>
